# xmcd
#
# Track frame offsets:
#	150
#	18075
#	32400
#	47917
#	63452
#	80132
#	102050
#	127980
#	145422
#	164160
#	181295
#
# Disc length: 2515 seconds
#
# Revision: 1
# Processed by: cddbd v1.5.1PL0 Copyright (c) Steve Scherf et al.
# Submitted via: CDex 1.50Beta5
#
DISCID=9209d10b
DTITLE=清水咲斗子 - Get Your Dream〜for every little diamond〜
DYEAR=1992
DGENRE=Pop
TTITLE0=Unseen Love
TTITLE1=KITCHEN DISCOTHEQUE
TTITLE2=GET THE POWER!
TTITLE3=Keep Your Pure Love
TTITLE4=ガラスの少年
TTITLE5=Shinning Soul
TTITLE6=Still Waiting
TTITLE7=Get Your Dream
TTITLE8=フューチャー・ヒーロー
TTITLE9=for every little diamond
TTITLE10=エピローグ
EXTD=
EXTT0=
EXTT1=
EXTT2=
EXTT3=
EXTT4=
EXTT5=
EXTT6=
EXTT7=
EXTT8=
EXTT9=
EXTT10=
PLAYORDER=
